<svg width="20" height="20" viewBox="0 0 20 20" fill="none" xmlns="http://www.w3.org/2000/svg">
<path d="M7.79515 17.4998C8.38276 18.0185 9.15463 18.3332 10 18.3332C10.8454 18.3332 11.6172 18.0185 12.2049 17.4998M15 6.6665C15 5.34042 14.4732 4.06865 13.5355 3.13097C12.5979 2.19329 11.3261 1.6665 10 1.6665C8.67392 1.6665 7.40215 2.19329 6.46447 3.13097C5.52678 4.06865 5 5.34042 5 6.6665C5 9.24166 4.35039 11.0048 3.62472 12.171C3.0126 13.1547 2.70655 13.6466 2.71777 13.7838C2.7302 13.9357 2.76238 13.9937 2.88481 14.0845C2.99538 14.1665 3.49382 14.1665 4.49071 14.1665H15.5093C16.5062 14.1665 17.0046 14.1665 17.1152 14.0845C17.2376 13.9937 17.2698 13.9357 17.2822 13.7838C17.2935 13.6466 16.9874 13.1547 16.3753 12.171C15.6496 11.0048 15 9.24166 15 6.6665Z" stroke="black" stroke-width="1.6" stroke-linecap="round" stroke-linejoin="round"/>
</svg>
