<svg width="16" height="16" viewBox="0 0 16 16" fill="none" xmlns="http://www.w3.org/2000/svg">
<path d="M8.00001 6.26667C8.00001 4.77319 8.00001 4.02646 8.29066 3.45603C8.54632 2.95426 8.95427 2.54631 9.45604 2.29065C10.0265 2 10.7732 2 12.2667 2H12.5333C13.2801 2 13.6534 2 13.9387 2.14532C14.1895 2.27316 14.3935 2.47713 14.5214 2.72801C14.6667 3.01323 14.6667 3.3866 14.6667 4.13333V9.86667C14.6667 10.6134 14.6667 10.9868 14.5214 11.272C14.3935 11.5229 14.1895 11.7268 13.9387 11.8547C13.6534 12 13.2801 12 12.5333 12H11.6168C10.7819 12 10.3645 12 9.98561 12.1151C9.65017 12.2169 9.3381 12.3839 9.06728 12.6065C8.76135 12.858 8.52981 13.2053 8.06671 13.8999L8.00001 14L7.93331 13.8999C7.47021 13.2053 7.23866 12.858 6.93274 12.6065C6.66191 12.3839 6.34985 12.2169 6.01441 12.1151C5.63551 12 5.21808 12 4.38323 12H3.46668C2.71994 12 2.34657 12 2.06136 11.8547C1.81047 11.7268 1.6065 11.5229 1.47867 11.272C1.33334 10.9868 1.33334 10.6134 1.33334 9.86667V4.13333C1.33334 3.3866 1.33334 3.01323 1.47867 2.72801C1.6065 2.47713 1.81047 2.27316 2.06136 2.14532C2.34657 2 2.71994 2 3.46668 2H3.73334C5.22682 2 5.97355 2 6.54398 2.29065C7.04575 2.54631 7.4537 2.95426 7.70936 3.45603C8.00001 4.02646 8.00001 4.77319 8.00001 6.26667ZM8.00001 14V6.26667" stroke="#31418C" stroke-width="1.2" stroke-linecap="round" stroke-linejoin="round"/>
</svg>
